<?xml version="1.0" standalone="no"?>
<!DOCTYPE svg PUBLIC "-//W3C//DTD SVG 20010904//EN"
 "http://www.w3.org/TR/2001/REC-SVG-20010904/DTD/svg10.dtd">
<svg version="1.0" xmlns="http://www.w3.org/2000/svg"
 width="1280.000000pt" height="720.000000pt" viewBox="0 0 1280.000000 720.000000"
 preserveAspectRatio="xMidYMid meet">

<g transform="translate(0.000000,720.000000) scale(0.100000,-0.100000)"
fill="#000000" stroke="none">
<path d="M1050 5431 c0 -6 9 -43 20 -83 44 -165 45 -192 45 -1433 0 -1085 -1
-1189 -18 -1293 -10 -62 -26 -140 -36 -172 l-19 -60 663 0 c736 0 827 6 1005
62 160 51 262 110 366 213 141 140 200 273 211 467 15 285 -92 523 -307 684
-68 50 -213 116 -318 143 l-105 27 107 57 c305 162 475 328 536 526 29 91 40
210 28 294 -38 277 -251 464 -626 549 -94 21 -118 22 -824 25 -501 3 -728 1
-728 -6z m1090 -141 c437 -54 665 -269 621 -586 -24 -174 -75 -270 -215 -409
-78 -78 -135 -122 -249 -195 -380 -244 -447 -291 -541 -381 -53 -50 -114 -118
-136 -151 l-40 -60 0 896 0 896 238 0 c131 0 276 -5 322 -10z m460 -1510 c71
-70 94 -101 133 -180 68 -139 90 -243 85 -400 -4 -105 -9 -137 -33 -200 -61
-165 -167 -282 -329 -360 -180 -88 -308 -110 -653 -110 l-223 0 0 328 c0 354
4 390 56 497 83 169 249 300 613 482 l164 83 51 -28 c28 -15 89 -65 136 -112z"/>
<path d="M6061 4900 c-45 -19 -82 -52 -101 -90 -23 -46 -26 -126 -6 -173 18
-44 77 -94 127 -107 82 -22 186 26 223 104 37 79 8 191 -64 241 -43 30 -136
43 -179 25z"/>
<path d="M4420 4374 c-19 -2 -91 -9 -160 -14 -228 -20 -624 -85 -618 -101 2
-5 63 -92 136 -194 l134 -186 26 21 c301 230 565 340 815 340 117 0 173 -18
231 -75 70 -68 91 -160 60 -266 -45 -153 -185 -272 -355 -300 -42 -7 -124 -8
-239 -3 -235 11 -318 7 -411 -20 -191 -55 -332 -203 -384 -401 -25 -93 -22
-261 5 -362 105 -390 562 -539 964 -316 83 45 210 162 272 249 50 70 113 200
141 289 l18 60 6 -235 c6 -222 15 -301 48 -405 21 -70 4 -65 217 -65 l194 0
-11 28 c-6 15 -20 63 -31 107 -20 76 -22 116 -28 745 -6 573 -10 674 -24 729
-58 224 -210 333 -516 371 -76 9 -404 12 -490 4z m624 -808 c-72 -479 -239
-806 -467 -915 -255 -121 -504 3 -549 274 -28 166 49 331 196 427 79 51 156
73 322 93 168 20 246 37 322 71 79 35 126 69 158 115 15 22 28 38 30 36 2 -1
-3 -47 -12 -101z"/>
<path d="M5870 4377 c0 -1 11 -47 25 -102 38 -150 45 -278 45 -890 0 -603 -7
-744 -45 -891 -14 -52 -25 -96 -25 -99 0 -3 119 -5 265 -5 253 0 265 1 256 18
-23 43 -53 194 -61 310 -13 172 -12 1189 0 1345 9 107 23 182 56 295 l6 22
-261 0 c-143 0 -261 -1 -261 -3z"/>
<path d="M6655 2978 c0 -304 -4 -572 -8 -595 l-9 -43 98 0 98 0 -32 33 c-18
19 -43 58 -55 88 -21 52 -22 67 -24 484 -3 408 -2 428 14 400 9 -16 103 -196
208 -400 l192 -370 39 -3 39 -2 203 394 c112 217 210 403 217 413 12 15 14
-45 14 -427 1 -400 -6 -543 -25 -594 -5 -14 7 -16 114 -16 l121 0 -12 33 c-14
37 -18 1041 -4 1115 l7 42 -103 0 -103 0 -196 -377 c-108 -208 -200 -377 -204
-376 -4 1 -95 170 -202 377 l-194 376 -96 0 -97 0 0 -552z"/>
<path d="M8215 3109 c-97 -10 -215 -31 -215 -37 0 -7 89 -130 100 -137 5 -3
31 10 58 30 99 70 226 112 304 100 119 -20 118 -172 -2 -233 -40 -20 -59 -22
-168 -21 -114 1 -128 -1 -177 -25 -63 -31 -100 -81 -113 -154 -30 -164 68
-287 228 -287 133 0 240 76 295 210 l22 55 6 -103 c4 -56 12 -117 18 -135 l11
-32 75 0 c69 0 74 1 68 19 -18 57 -25 160 -25 371 0 225 -1 238 -22 280 -13
24 -34 52 -48 62 -61 43 -228 59 -415 37z m321 -365 c-39 -188 -119 -301 -226
-319 -141 -24 -219 171 -108 271 37 35 63 44 159 60 96 15 166 44 177 72 14
36 13 -14 -2 -84z"/>
<path d="M8875 3103 c36 -92 35 -630 -1 -745 -5 -16 4 -18 96 -18 l102 0 -7
28 c-4 15 -10 147 -12 295 l-4 267 93 45 c113 55 201 74 243 54 15 -8 38 -27
49 -42 19 -26 21 -44 24 -244 3 -194 -6 -339 -24 -386 -6 -15 4 -17 96 -17
102 0 102 0 95 23 -4 12 -11 157 -14 322 -7 318 -12 346 -59 388 -79 71 -223
60 -404 -32 -53 -27 -99 -46 -102 -43 -3 3 -6 17 -6 32 0 15 -5 41 -11 59
l-11 31 -75 0 c-68 0 -74 -2 -68 -17z"/>
<path d="M9786 3068 c10 -37 14 -126 14 -308 0 -154 4 -271 11 -295 6 -21 25
-53 43 -71 80 -80 232 -67 424 36 41 23 75 39 76 38 1 -2 8 -30 16 -63 l15
-60 76 -3 76 -3 -13 53 c-20 74 -20 602 0 676 l13 52 -102 0 -102 0 13 -62 c9
-41 14 -143 14 -296 l0 -233 -83 -39 c-186 -87 -274 -85 -313 7 -20 46 -20
497 0 571 l13 52 -102 0 -102 0 13 -52z"/>
<path d="M10862 3105 c-72 -20 -104 -38 -140 -79 -62 -70 -60 -151 3 -216 49
-50 101 -77 275 -145 176 -68 235 -100 267 -142 36 -47 26 -78 -35 -105 -103
-46 -250 -18 -380 71 l-69 48 -52 -71 c-28 -39 -47 -74 -43 -77 11 -11 198
-38 312 -45 179 -10 298 28 356 116 23 34 26 48 22 95 -4 48 -10 61 -44 96
-46 48 -128 91 -284 149 -200 75 -280 126 -280 181 0 34 43 66 104 79 103 21
220 -10 337 -90 32 -22 61 -40 63 -40 6 0 108 141 104 145 -2 2 -50 11 -108
20 -152 24 -342 29 -408 10z"/>
</g>
</svg>
