<?xml version="1.0" standalone="no"?>
<!DOCTYPE svg PUBLIC "-//W3C//DTD SVG 20010904//EN"
 "http://www.w3.org/TR/2001/REC-SVG-20010904/DTD/svg10.dtd">
<svg version="1.0" xmlns="http://www.w3.org/2000/svg"
 width="1920.000000pt" height="1080.000000pt" viewBox="0 0 1920.000000 1080.000000"
 preserveAspectRatio="xMidYMid meet">

<g transform="translate(0.000000,1080.000000) scale(0.100000,-0.100000)"
fill="#000000" stroke="none">
<path d="M11168 9817 c-38 -17 -68 -33 -68 -36 0 -3 21 -19 47 -36 67 -42 176
-147 213 -205 153 -238 98 -535 -140 -770 -178 -175 -397 -261 -629 -247 -117
7 -190 26 -300 78 -178 83 -292 174 -654 520 -267 255 -350 320 -502 395 -517
252 -1104 111 -1404 -336 -94 -141 -154 -305 -182 -499 -17 -119 -6 -406 20
-546 58 -313 208 -691 397 -1006 35 -59 64 -112 64 -118 0 -8 -804 -12 -2943
-13 l-2943 -3 158 -230 159 -230 1187 -5 1187 -5 3 -672 c1 -370 -2 -673 -6
-673 -5 0 -38 35 -74 78 -202 238 -430 398 -655 459 -206 55 -496 21 -730 -87
-191 -89 -398 -271 -501 -442 -239 -396 -157 -986 206 -1474 251 -339 506
-491 786 -470 345 26 664 211 894 519 36 48 69 87 74 87 4 0 8 -312 8 -692 l0
-693 203 -132 c111 -72 210 -135 219 -138 17 -7 18 115 18 2151 0 1188 0 2165
0 2172 0 9 71 12 320 12 l320 0 0 -1984 0 -1983 211 -184 c116 -101 215 -185
220 -187 5 -2 9 918 9 2167 l0 2171 853 -2 852 -3 3 -292 2 -292 -457 -3
c-509 -4 -490 -2 -600 -74 -104 -70 -209 -226 -249 -371 -22 -79 -29 -281 -15
-384 53 -371 409 -908 694 -1049 132 -65 204 -59 434 34 213 86 272 85 358 -1
64 -66 85 -128 85 -256 0 -134 -27 -262 -78 -370 -130 -278 -341 -445 -595
-472 -66 -7 -66 -7 -78 21 -45 111 -117 244 -168 310 -68 91 -119 135 -197
171 -48 22 -66 25 -123 21 -268 -20 -392 -348 -244 -643 109 -216 380 -382
655 -402 48 -3 92 -11 97 -17 5 -6 105 -191 223 -411 118 -220 272 -507 343
-638 l129 -237 40 37 c141 132 246 239 243 248 -3 5 -165 241 -361 523 -197
283 -359 519 -362 526 -3 9 18 19 63 31 162 44 310 134 440 268 136 140 221
288 270 472 23 87 26 119 26 250 0 136 -3 161 -30 267 -49 185 -132 362 -254
543 -155 231 -305 345 -449 345 -52 -1 -95 -11 -210 -51 -217 -75 -269 -89
-333 -89 -87 0 -149 39 -214 135 -51 75 -69 240 -38 360 35 135 122 252 223
302 l57 28 552 3 553 3 2 577 3 577 247 3 247 2 -52 73 c-29 41 -101 146 -162
235 l-110 162 -210 0 -210 0 -19 33 c-224 382 -340 734 -353 1077 -6 166 5
255 49 385 66 197 243 368 455 440 142 48 221 57 427 52 424 -10 574 -85 1002
-498 243 -234 360 -321 532 -394 114 -48 205 -65 377 -71 366 -14 663 99 846
320 265 321 242 800 -59 1220 -64 89 -248 287 -266 285 -6 0 -41 -15 -78 -32z
m-6865 -4576 c191 -50 375 -189 452 -341 43 -85 57 -220 34 -332 -27 -130
-148 -321 -282 -443 -72 -66 -207 -165 -225 -165 -5 0 -35 55 -67 123 -32 67
-142 291 -243 497 -250 510 -282 576 -282 587 0 22 103 66 210 89 92 19 301
12 403 -15z m-733 -471 c494 -952 493 -951 479 -965 -26 -25 -134 -74 -224
-100 -70 -21 -119 -28 -221 -32 l-132 -6 -71 33 c-138 64 -260 234 -312 435
-26 102 -36 305 -20 401 27 152 92 285 187 379 64 65 163 120 181 102 6 -7 66
-118 133 -247z"/>
<path d="M9655 4197 c-294 -62 -524 -283 -591 -565 -21 -88 -21 -238 0 -327
50 -209 205 -403 404 -504 80 -41 225 -73 330 -73 217 0 396 74 547 227 140
142 204 287 212 480 6 140 -12 228 -71 349 -90 186 -244 320 -441 385 -84 28
-118 34 -215 37 -69 2 -139 -2 -175 -9z"/>
</g>
</svg>
