<?xml version="1.0" standalone="no"?>
<!DOCTYPE svg PUBLIC "-//W3C//DTD SVG 20010904//EN"
 "http://www.w3.org/TR/2001/REC-SVG-20010904/DTD/svg10.dtd">
<svg version="1.0" xmlns="http://www.w3.org/2000/svg"
 width="1920.000000pt" height="1080.000000pt" viewBox="0 0 1920.000000 1080.000000"
 preserveAspectRatio="xMidYMid meet">

<g transform="translate(0.000000,1080.000000) scale(0.100000,-0.100000)"
fill="#000000" stroke="none">
<path d="M11168 9817 c-38 -17 -68 -33 -68 -36 0 -3 21 -19 47 -36 67 -42 176
-147 213 -205 153 -238 98 -535 -140 -770 -178 -175 -397 -261 -629 -247 -117
7 -190 26 -300 78 -178 83 -292 174 -654 520 -267 255 -350 320 -502 395 -517
252 -1104 111 -1404 -336 -94 -141 -154 -305 -182 -499 -17 -119 -6 -406 20
-546 58 -313 208 -691 397 -1006 35 -59 64 -112 64 -118 0 -8 -804 -12 -2943
-13 l-2943 -3 158 -230 159 -230 1187 -5 1187 -5 3 -672 c1 -370 -2 -673 -6
-673 -5 0 -38 35 -74 78 -202 238 -430 398 -655 459 -206 55 -496 21 -730 -87
-191 -89 -398 -271 -501 -442 -239 -396 -157 -986 206 -1474 251 -339 506
-491 786 -470 345 26 664 211 894 519 36 48 69 87 74 87 4 0 8 -312 8 -692 l0
-693 203 -132 c111 -72 210 -135 219 -138 17 -7 18 115 18 2151 0 1188 0 2165
0 2172 0 9 71 12 320 12 l320 0 0 -1984 0 -1983 211 -184 c116 -101 215 -185
220 -187 5 -2 9 918 9 2167 l0 2171 853 -2 852 -3 3 -292 2 -292 -457 -3
c-509 -4 -490 -2 -600 -74 -104 -70 -209 -226 -249 -371 -22 -79 -29 -281 -15
-384 53 -371 409 -908 694 -1049 132 -65 204 -59 434 34 213 86 272 85 358 -1
64 -66 85 -128 85 -256 0 -134 -27 -262 -78 -370 -130 -278 -341 -445 -595
-472 -66 -7 -66 -7 -78 21 -45 111 -117 244 -168 310 -68 91 -119 135 -197
171 -48 22 -66 25 -123 21 -268 -20 -392 -348 -244 -643 109 -216 380 -382
655 -402 48 -3 92 -11 97 -17 5 -6 105 -191 223 -411 118 -220 272 -507 343
-638 l129 -237 40 37 c141 132 246 239 243 248 -3 5 -165 241 -361 523 -197
283 -359 519 -362 526 -3 9 18 19 63 31 162 44 310 134 440 268 136 140 221
288 270 472 23 87 26 119 26 250 0 136 -3 161 -30 267 -49 185 -132 362 -254
543 -155 231 -305 345 -449 345 -52 -1 -95 -11 -210 -51 -217 -75 -269 -89
-333 -89 -87 0 -149 39 -214 135 -51 75 -69 240 -38 360 35 135 122 252 223
302 l57 28 552 3 553 3 2 577 3 577 247 3 247 2 -52 73 c-29 41 -101 146 -162
235 l-110 162 -210 0 -210 0 -19 33 c-224 382 -340 734 -353 1077 -6 166 5
255 49 385 66 197 243 368 455 440 142 48 221 57 427 52 424 -10 574 -85 1002
-498 243 -234 360 -321 532 -394 114 -48 205 -65 377 -71 366 -14 663 99 846
320 265 321 242 800 -59 1220 -64 89 -248 287 -266 285 -6 0 -41 -15 -78 -32z
m-6865 -4576 c191 -50 375 -189 452 -341 43 -85 57 -220 34 -332 -27 -130
-148 -321 -282 -443 -72 -66 -207 -165 -225 -165 -5 0 -35 55 -67 123 -32 67
-142 291 -243 497 -250 510 -282 576 -282 587 0 22 103 66 210 89 92 19 301
12 403 -15z m-733 -471 c494 -952 493 -951 479 -965 -26 -25 -134 -74 -224
-100 -70 -21 -119 -28 -221 -32 l-132 -6 -71 33 c-138 64 -260 234 -312 435
-26 102 -36 305 -20 401 27 152 92 285 187 379 64 65 163 120 181 102 6 -7 66
-118 133 -247z"/>
<path d="M8680 7615 c0 -3 35 -56 79 -118 43 -62 95 -138 116 -169 l38 -58
248 0 249 0 0 -730 0 -730 -82 0 c-110 0 -150 -13 -187 -57 -39 -47 -44 -83
-26 -184 40 -231 247 -545 414 -628 97 -49 146 -25 181 86 16 52 20 93 20 209
l0 144 450 0 450 0 0 -577 0 -578 158 -103 157 -103 3 1626 2 1625 243 -2 242
-3 5 -1486 5 -1486 155 -135 155 -136 3 1624 2 1624 150 0 150 0 0 -629 c0
-701 -1 -682 69 -860 72 -181 193 -362 341 -512 183 -185 308 -238 457 -194
72 21 167 88 220 154 58 73 119 194 146 290 21 75 22 92 25 914 l3 837 279 0
280 0 0 -1529 0 -1528 -69 -5 c-156 -11 -303 -123 -390 -295 -41 -83 -61 -169
-61 -273 0 -206 79 -388 261 -606 131 -157 274 -245 406 -252 118 -7 275 52
377 140 l39 34 -104 171 -104 171 -67 -63 c-85 -81 -188 -133 -278 -141 -94
-9 -145 8 -201 66 -141 145 -125 419 32 564 77 72 147 99 254 99 94 0 123 -11
245 -91 178 -118 413 -381 859 -962 246 -320 293 -380 295 -380 2 0 29 29 61
65 l57 65 -58 78 c-58 76 -204 266 -288 372 -487 620 -778 959 -895 1045 l-41
30 0 1613 0 1612 365 0 366 0 -3 -597 c-3 -571 -4 -600 -23 -647 -21 -52 -54
-82 -62 -58 -26 72 -157 162 -235 162 -76 0 -147 -71 -169 -170 -22 -95 36
-311 141 -525 84 -173 136 -256 348 -554 270 -380 402 -566 518 -731 60 -86
112 -157 116 -158 4 -1 46 41 93 93 58 64 83 99 78 108 -7 11 -377 464 -715
876 -48 58 -88 113 -88 122 0 9 18 29 40 44 103 72 206 272 241 470 14 81 27
83 94 14 109 -110 238 -189 355 -215 63 -15 76 -15 152 1 130 26 252 89 375
192 28 23 56 43 62 43 8 0 11 -206 11 -719 l0 -719 158 -137 157 -138 3 1621
2 1622 226 0 c139 0 224 4 222 10 -1 5 -54 84 -116 175 l-113 165 -4064 0
c-2236 0 -4065 -2 -4065 -5z m1948 -1077 l2 -728 -450 0 -450 0 0 730 0 730
448 -2 447 -3 3 -727z m2370 -50 l-3 -783 -23 -56 c-13 -33 -46 -82 -80 -119
-74 -83 -151 -120 -248 -120 -108 0 -172 48 -232 178 l-27 57 -3 813 -3 812
311 0 311 0 -3 -782z m3272 263 l0 -519 -97 -92 c-122 -117 -234 -200 -343
-255 -113 -57 -178 -75 -269 -75 -66 0 -83 4 -128 30 -28 16 -79 55 -112 86
l-61 56 0 637 c0 351 3 641 7 644 3 4 231 7 505 7 l498 0 0 -519z"/>
<path d="M9655 4197 c-294 -62 -524 -283 -591 -565 -21 -88 -21 -238 0 -327
50 -209 205 -403 404 -504 80 -41 225 -73 330 -73 217 0 396 74 547 227 140
142 204 287 212 480 6 140 -12 228 -71 349 -90 186 -244 320 -441 385 -84 28
-118 34 -215 37 -69 2 -139 -2 -175 -9z"/>
</g>
</svg>
